# xmcd
#
# Track frame offsets:
#  150
#  16692
#  30443
#  46415
#  61142
#  76717
#  92073
#  104273
#  118997
#  131337
#  151546
#  172208
#  184823
#  199166
#  225709
#  239236
#  252135
#
# Disc length: 3642 seconds
#
# Revision: 0
# Processed by: cddbd v1.5.1PL2 Copyright (c) Steve Scherf et al.
# Submitted via: Collectorz.com_Music_Collector 6.10
#
DISCID=d50e3811
DTITLE=Asleep At The Wheel - Ride With Bob
DYEAR=1999
DGENRE=Country
TTITLE0=Bob's Breakdowns
TTITLE1=New San Antonio Rose
TTITLE2=I Ain't Got Nobody
TTITLE3=Roly Poly
TTITLE4=Heart To Heart Talk
TTITLE5=Cherokee Maiden
TTITLE6=Maiden's Prayer
TTITLE7=You're From Texas
TTITLE8=Right Or Wrong
TTITLE9=Faded Love
TTITLE10=St. Louis Blues
TTITLE11=End Of The Line
TTITLE12=Take Me Back To Tulsa
TTITLE13=Milk Cow Blues
TTITLE14=Stay All Night
TTITLE15=Bob Wills Is Still The King
TTITLE16=Going Away Party
EXTD=
EXTT0=
EXTT1=
EXTT2=
EXTT3=
EXTT4=
EXTT5=
EXTT6=
EXTT7=
EXTT8=
EXTT9=
EXTT10=
EXTT11=
EXTT12=
EXTT13=
EXTT14=
EXTT15=
EXTT16=
PLAYORDER=
